<?xml version="1.0" encoding="UTF-8"?>
<svg id="Layer_2" xmlns="http://www.w3.org/2000/svg" viewBox="0 0 260.61 142.91">
  <defs>
    <style>
      .cls-1 {
        fill: #141a96;
      }

      .cls-2 {
        fill: #0201c9;
      }

      .cls-3 {
        fill: #fff;
      }

      .cls-4 {
        fill: none;
      }

      .cls-5 {
        fill: #f4f447;
      }

      .cls-6 {
        fill: #e00a46;
      }

      .cls-7 {
        fill: #ffbdbd;
      }

      .cls-8 {
        fill: #75031e;
      }

      .cls-9 {
        fill: #969614;
      }

      .cls-10 {
        fill: #fdffbd;
      }

      .cls-11 {
        fill: #f44747;
      }

      .cls-12 {
        fill: #bbffc3;
      }

      .cls-13 {
        fill: #961414;
      }

      .cls-14 {
        fill: #142196;
      }

      .cls-15 {
        fill: #006;
      }

      .cls-16 {
        fill: #475cf4;
      }

      .cls-17 {
        fill: #041b72;
      }

      .cls-18 {
        fill: #fefd04;
      }
    </style>
  </defs>
  <g id="Capa_1">
    <g>
      <path class="cls-4" d="M236.89,75.17c1.61,1.61,3.34,3.56,5.06,5.85,0,0,0,0,0,0-1.71-2.29-3.45-4.24-5.06-5.85Z"/>
      <path class="cls-4" d="M157.25,9.01c-3.04,0-7.78.03-13.28,1.84,5.5-1.8,10.24-1.84,13.28-1.84Z"/>
      <path class="cls-4" d="M214.13,52.72h0c-.93-.43-1.88-.79-2.84-1.13.96.34,1.91.71,2.85,1.13Z"/>
      <path class="cls-4" d="M96.89,65.59c-3.82-3.61-12.04-9.93-24.15-11.76-2.12-.32-4.33-.48-6.57-.48,0,0,0,0,0,0,2.24,0,4.45.16,6.56.48,12.11,1.83,20.33,8.15,24.15,11.76l13.66,12.89h0s0,0,0-.01l-13.65-12.88Z"/>
      <path class="cls-4" d="M215.06,53.16c8.97,4.33,13.95,11.1,15.85,13.71,1.54,2.1,2.83,4.23,3.91,6.34,0,0,0,0,.01,0,0,0,0,0,0,0-1.08-2.12-2.37-4.25-3.91-6.35-1.91-2.61-6.9-9.4-15.87-13.72Z"/>
      <path class="cls-4" d="M17.08,94.34c2.08-4.33,4.5-7.65,6.52-10.03,0,0,0,0,0,0-2.03,2.38-4.45,5.71-6.52,10.03Z"/>
      <path class="cls-4" d="M200.91,49.5c-.22-.01-.43-.04-.65-.05.22.01.44.03.65.05Z"/>
      <path class="cls-4" d="M198.11,49.4c.4,0,.8.02,1.2.03-.4-.01-.79-.03-1.19-.03,0,0,0,0,0,0Z"/>
      <path class="cls-4" d="M197.42,49.41c-4.17.06-7.93.65-11.06,1.19,3.14-.53,6.9-1.13,11.06-1.19Z"/>
      <path class="cls-4" d="M137.85,61.26c-.55-2.63-4.91-26.09,10.47-42.28,1.04-1.09,2.11-2.08,3.2-3-1.1.91-2.17,1.9-3.21,2.99-15.39,16.19-11.02,39.66-10.47,42.28.07.29.12.52.16.71l3.3,14.82h0s-3.3-14.82-3.3-14.82c-.05-.19-.1-.42-.16-.71Z"/>
      <path class="cls-4" d="M157.41,9.01h-.01c1.94,0,3.84.11,5.68.32-.9.34-1.81.73-2.71,1.14.9-.41,1.81-.8,2.72-1.14-1.84-.21-3.74-.32-5.68-.32Z"/>
      <path class="cls-4" d="M177.27,9.46c4.78.48,9.06,1.37,12.82,2.41,0,0,0,0,0-.01-3.76-1.04-8.04-1.93-12.83-2.41-5.35-.54-10.15-.46-14.18-.12h0c4.03-.33,8.82-.41,14.18.13Z"/>
      <polygon class="cls-4" points="10.23 120.84 10.22 120.84 9.08 126.23 9.09 126.23 10.23 120.84"/>
      <polygon class="cls-3" points="141.33 76.78 141.33 76.77 141.32 76.78 141.31 76.79 141.33 76.78"/>
      <polygon class="cls-3" points="23.61 84.31 23.61 84.31 23.61 84.3 23.61 84.3 23.61 84.31"/>
      <path class="cls-12" d="M110.54,78.47s0,0,0,.01c0,0,0,0,0,0h0-.01Z"/>
      <path class="cls-10" d="M106.13,66.38c1.65,4.16,3.12,8.2,4.42,12.1l1.49-18.72c.63-7.92,2.99-19.72,10.66-30.95,3.61-5.29,8.56-12.54,18.07-16.74,1.09-.48,2.16-.88,3.2-1.22,5.5-1.81,10.24-1.84,13.28-1.84.03,0,.05,0,.08,0h.08c1.94,0,3.84.11,5.68.32,4.03-.34,8.83-.42,14.18.12,4.78.48,9.07,1.37,12.83,2.41.19-.71.43-1.38.73-2.02-7.6-4.64-19.19-9.85-33.43-9.85h-.09c-4.3,0-11.73.09-20.18,3.83-11.86,5.24-17.99,14.22-21.87,19.9-9.22,13.5-11.55,27.25-12.2,35.3,0,0,0,0,0,0,1.03,2.37,2.06,4.81,3.06,7.34Z"/>
      <path class="cls-9" d="M190.1,11.87c-3.76-1.04-8.05-1.93-12.82-2.41-5.36-.54-10.15-.46-14.18-.12h0c-.91.33-1.81.72-2.72,1.13-3.03,1.38-6.02,3.16-8.85,5.52-1.09.91-2.17,1.9-3.2,3-15.38,16.19-11.02,39.65-10.47,42.28.06.29.11.52.16.71l3.3,14.81h0s0,0,0,0c.4-2.97,1.17-6.57,2.63-10.5.88-2.38,1.87-4.47,2.85-6.27-.03-.14-.08-.34-.13-.6-.3-1.45-4.13-21.28,8.18-34.23,7.81-8.22,18.26-9.62,27.09-10.8,2.82-.38,5.45-.52,7.83-.54.05-.62.14-1.24.3-1.86,0-.04.02-.07.03-.11Z"/>
      <path class="cls-7" d="M152.73,66.77c6.69-5.87,17.83-13.42,32.85-16.03.25-.04.51-.09.77-.13,3.14-.54,6.89-1.13,11.06-1.19.23,0,.46-.01.69-.01,0,0,0,0,0,0,.4,0,.79.02,1.19.03.32,0,.64,0,.95.02.22.01.44.03.65.05,3.64.23,7.08.93,10.38,2.09.96.34,1.9.7,2.84,1.12,0,0,.01,0,.02,0,.31.14.61.29.92.44,8.97,4.32,13.96,11.11,15.87,13.72,1.54,2.1,2.83,4.23,3.91,6.35.65.58,1.33,1.23,2.05,1.94,1.61,1.61,3.34,3.55,5.06,5.85,0,0,.01-.01.02-.02h0s0,0,0,0c1.43-1.14,3.04-1.88,4.71-2.25-1.59-5.33-4.19-11.31-8.48-17.17-2.59-3.54-8.86-11.89-20.36-17.05-7.04-3.16-13.79-4.11-19.72-4.11-5.57,0-10.4.84-14.07,1.48-18.27,3.18-30.94,12.6-37.24,18.14-.98,1.8-1.97,3.9-2.85,6.27-1.45,3.91-2.22,7.5-2.62,10.47,0,0,0,0,0,.01l11.41-10.01Z"/>
      <path class="cls-12" d="M141.32,76.81s0-.02,0-.03h-.01s.01.03.01.03Z"/>
      <path class="cls-14" d="M89.51,111.46c-4.82-12.41-9.81-25.25-22.98-31.62-4.77-2.31-10.06-3.48-15.7-3.48-6.69,0-12.29,1.66-14.99,2.46-4.62,1.37-8.68,3.28-12.23,5.48,0,0,0,0,0,.01h0s0,0,0,0c-2.02,2.38-4.45,5.71-6.52,10.03-1.63,3.39-2.66,6.6-3.32,9.38.03,0,.06,0,.09.01h-.01c.54.11,1.05.28,1.56.46,3.75-5.17,11.11-13.22,23-16.74,2.45-.73,7.05-2.09,12.43-2.09,3.7,0,7.78.64,11.78,2.58,9.98,4.83,13.92,14.98,18.51,26.78,3.46,8.9,5.63,23.03,6.28,28.17l6.67-14.77h0c-1.11-5.51-2.63-11.68-4.56-16.66Z"/>
      <path class="cls-16" d="M13.76,103.72c.66-2.78,1.7-5.98,3.32-9.38,2.08-4.33,4.49-7.65,6.52-10.03,0,0,0,0,0,0h0s0,0,0,0c1.46-4.77,3.81-9.7,7.49-14.32,4.95-6.2,10.77-9.89,14.78-11.9,7.81-3.91,15.35-4.73,20.29-4.73,0,0,0,0,0,0,2.24,0,4.45.16,6.57.48,12.11,1.83,20.33,8.15,24.15,11.76l13.65,12.88h.01c-1.3-3.89-2.77-7.93-4.42-12.09-1-2.53-2.03-4.97-3.06-7.34,0,0,0,0,0,0-3.42-3.23-13.34-11.74-28.98-14.1-1.55-.23-4.32-.58-7.91-.58-6.29,0-15.1,1.07-24.32,5.68-3.76,1.88-11.3,6.21-17.78,14.33-11.38,14.25-12.04,30.83-11.54,39.18.41.04.82.1,1.23.18Z"/>
      <path class="cls-7" d="M241.94,81.02h0s3.44,4.27,3.44,4.27c2.58-2.07,6.34-1.67,8.41.89l4.29-3.46h0c-2.83-3.51-7.31-4.9-11.44-3.97-1.67.37-3.28,1.11-4.7,2.26h0Z"/>
      <path class="cls-13" d="M238.54,85.53c-1.58,3.76-1.1,8.24,1.63,11.63,3.97,4.93,11.2,5.7,16.14,1.71h0s0,0,0,0l-3.44-4.28s0,0,0,0c-2.58,2.08-6.35,1.68-8.41-.88,0,0,0,0,0,0-2.07-2.57-1.65-6.33.93-8.41,0,0,0,0,.01,0l-3.44-4.27h0c-1.71-2.29-3.45-4.24-5.05-5.84-.71-.71-1.4-1.36-2.05-1.94,0,0,0,0,0,0,0,0,0,0-.01,0-5.55-2.47-11.92-4.23-18.79-4.23,0,0,0,0,0,0-3.69,0-7.33.52-10.82,1.55-10.34,3.05-16.74,9.76-19.47,12.62-10.95,11.49-14.44,25.54-15.28,36.31l8.09,10.73c.3.09.6.19.9.29-.54-6.48-1.15-26.46,12.81-41.12,2.64-2.77,7.59-7.87,15.49-10.2,2.8-.83,5.58-1.18,8.28-1.18,8.65,0,16.58,3.67,22.52,7.52"/>
      <path class="cls-11" d="M258.07,82.73l-4.28,3.45c2.07,2.57,1.65,6.33-.93,8.41l3.44,4.28s0,0,0,0c4.94-3.99,5.73-11.2,1.76-16.13Z"/>
      <path class="cls-3" d="M245.39,85.29s0,0-.01,0c-2.58,2.08-3,5.84-.93,8.41,0,0,0,0,0,0,2.07,2.56,5.83,2.96,8.41.88,0,0,0,0,0,0,2.58-2.08,2.99-5.84.93-8.41,0,0,0,0,0,0,0,0,0,0,0,0-2.07-2.56-5.82-2.96-8.41-.89Z"/>
      <path class="cls-10" d="M190.1,11.87s-.02.07-.03.11h0l5.34,1.35c.81-3.2,4.05-5.15,7.24-4.35l1.35-5.34c-5.39-1.36-10.85,1.35-13.16,6.21-.3.64-.55,1.31-.73,2.02,0,0,0,0,0,.01Z"/>
      <path class="cls-9" d="M195.4,13.34s0,0,0,0l-5.34-1.35h0c-.16.62-.25,1.24-.3,1.86-.47,5.51,3.07,10.71,8.59,12.1l1.35-5.33c-3.19-.82-5.11-4.07-4.3-7.28Z"/>
      <path class="cls-9" d="M206.98,16.27c-.81,3.21-4.06,5.16-7.26,4.35,0,0-.01,0-.02,0l-1.35,5.33h0c6.14,1.55,12.37-2.18,13.93-8.34l-5.31-1.34s0,0,0,0Z"/>
      <path class="cls-5" d="M202.66,8.98c3.19.81,5.12,4.06,4.32,7.27l5.31,1.34c1.56-6.16-2.15-12.41-8.29-13.96l-1.35,5.34s.01,0,.02,0Z"/>
      <path class="cls-3" d="M195.4,13.34c-.81,3.21,1.11,6.46,4.3,7.28,0,0,.01,0,.02,0,3.2.81,6.45-1.14,7.26-4.35,0,0,0,0,0,0,.81-3.21-1.12-6.47-4.32-7.27,0,0-.01,0-.02,0-3.19-.8-6.43,1.15-7.24,4.35,0,0,0,0,0,0Z"/>
      <path class="cls-16" d="M5.62,113.73c.69-3.24,3.86-5.32,7.08-4.63,0,0,0,0,0,0l1.14-5.37h.01s-.06,0-.09-.01c-.41-.08-.82-.14-1.23-.18-5.71-.53-11.06,3.3-12.28,9.06l5.37,1.14s0,0,0,0Z"/>
      <path class="cls-1" d="M10.22,120.84c-3.22-.68-5.28-3.86-4.6-7.1l-5.37-1.14c-1.32,6.21,2.63,12.31,8.83,13.63l1.14-5.39s0,0,0,0Z"/>
      <path class="cls-15" d="M17.3,116.22c-.69,3.23-3.85,5.3-7.06,4.62l-1.14,5.39h-.01c6.19,1.31,12.28-2.66,13.6-8.87h0s0,0,0,0l-5.38-1.14Z"/>
      <path class="cls-14" d="M12.71,109.1c3.22.68,5.28,3.87,4.59,7.11,0,0,0,0,0,.01l5.38,1.14s0,0,0,0c1.2-5.67-1.99-11.24-7.27-13.17-.5-.18-1.02-.35-1.56-.46l-1.14,5.37Z"/>
      <path class="cls-3" d="M5.62,113.73s0,0,0,0c-.68,3.24,1.37,6.42,4.6,7.1,0,0,0,0,0,0,0,0,0,0,0,0,3.22.67,6.37-1.39,7.06-4.62,0,0,0,0,0-.01.69-3.24-1.37-6.42-4.59-7.11,0,0,0,0,0,0-3.23-.68-6.4,1.39-7.08,4.63Z"/>
    </g>
    <path class="cls-2" d="M110.54,78.48s0,0,0,0h0s-13.66-12.89-13.66-12.89c-3.82-3.61-12.04-9.93-24.15-11.76-2.12-.32-4.33-.48-6.56-.48-4.94,0-12.48.82-20.29,4.73-4.01,2.01-9.83,5.7-14.78,11.9-3.68,4.62-6.03,9.55-7.49,14.32,3.55-2.2,7.61-4.11,12.23-5.48,2.7-.8,8.3-2.46,14.99-2.46,5.64,0,10.93,1.17,15.7,3.48,13.17,6.37,18.16,19.21,22.98,31.62,1.93,4.98,3.45,11.15,4.56,16.65h0c7.06-4.54,16.1-9.61,27.18-11.14,1.54-.21,3.19-.41,4.91-.58l.16-.02c.24-.02.48-.05.73-.07,2-.19,3.68-.31,5.29-.4h0s-21.8-37.42-21.8-37.42h0Z"/>
    <g>
      <path class="cls-18" d="M141.31,76.78h0s-3.3-14.81-3.3-14.81c-.04-.19-.09-.42-.16-.71-.55-2.62-4.92-26.09,10.47-42.28,1.04-1.09,2.12-2.08,3.21-2.99,2.83-2.36,5.82-4.14,8.85-5.52.9-.41,1.8-.8,2.71-1.14-1.84-.21-3.74-.32-5.68-.32h-.07s-.05,0-.08,0c-3.04,0-7.78.03-13.28,1.84-1.04.34-2.11.74-3.2,1.22-9.51,4.2-14.46,11.45-18.07,16.74-7.67,11.23-10.03,23.03-10.66,30.95l-1.49,18.72h0l21.8,37.42,8.97-39.11h0Z"/>
      <path class="cls-6" d="M230.91,66.87c-1.9-2.61-6.88-9.38-15.85-13.71-.3-.15-.6-.3-.92-.44,0,0-.01,0-.02,0h0c-.94-.41-1.89-.78-2.85-1.12-3.3-1.17-6.73-1.86-10.38-2.09-.22-.01-.43-.04-.65-.05-.31-.02-.64-.01-.95-.02-.4-.01-.79-.03-1.2-.03-.23,0-.46,0-.69.01-4.16.06-7.93.66-11.06,1.19-.26.04-.52.09-.77.13-15.02,2.61-26.16,10.16-32.85,16.03l-11.41,10.01s0,.02,0,.03v-.02s-8.98,39.11-8.98,39.11c2.28-.12,4.6-.18,6.88-.18,10.57,0,21.03,1.26,31.23,3.74.84-10.77,4.33-24.82,15.28-36.31,2.73-2.87,9.12-9.58,19.47-12.62,3.49-1.03,7.14-1.55,10.82-1.55,0,0,0,0,0,0,0,0,0,0,0,0,6.86,0,13.24,1.77,18.79,4.23-1.08-2.12-2.37-4.25-3.91-6.34Z"/>
    </g>
    <g>
      <path class="cls-8" d="M178.51,130.18l-8.05-10.69c-10.2-2.49-20.67-3.74-31.23-3.74v-.02c-2.27,0-4.59.06-6.87.18,0,0,0,0,0,0l1.63,10.07c3.86-.39,7.82-.59,11.86-.59,11.77,0,22.7,1.65,32.67,4.79Z"/>
      <path class="cls-17" d="M127.06,116.31c-.24.02-.49.05-.73.07l-.16.02c-1.72.17-3.37.37-4.91.58-11.09,1.53-20.13,6.6-27.19,11.15l-6.67,14.78c.36-.17.74-.35,1.13-.53,12.87-9.12,28.24-14.67,45.44-16.41l-1.63-10.07c-1.61.08-3.29.21-5.29.4Z"/>
    </g>
  </g>
</svg>